<svg xmlns="http://www.w3.org/2000/svg" viewBox="0 0 191.36 25.44"><title>logo-vagalumeria-branco</title><path d="M3.94,4.94c1.59,0,6.86,2.32,10.15,7,3.72,5.29,5,10.8,2.9,12.28a2.23,2.23,0,0,1-1.29.38c-2.41,0-6.2-2.88-9.28-7.28C2.7,12,3,5.65,3.53,5.05a.59.59,0,0,1,.41-.11M3.94,3h0a2.38,2.38,0,0,0-1.83.74c-1.63,1.75-1,9.36,2.72,14.71,3.45,4.92,7.72,8.1,10.87,8.1a4.12,4.12,0,0,0,2.4-.72c1-.7,2.51-2.5,1.51-6.74a25.09,25.09,0,0,0-3.93-8.25C12,5.62,6.18,3,3.94,3Z" transform="translate(-1.26 -3)" style="fill:#fff"/><path d="M27.19,4.94a.59.59,0,0,1,.41.11c.56.6.83,7-2.89,12.29-3.08,4.4-6.87,7.28-9.28,7.28a2.23,2.23,0,0,1-1.29-.38C12,22.76,13.32,17.25,17,12c3.3-4.7,8.57-7,10.16-7m0-1.94C25,3,19.11,5.62,15.45,10.84a24.89,24.89,0,0,0-3.93,8.25c-1,4.24.52,6,1.51,6.74a4.1,4.1,0,0,0,2.4.72c3.15,0,7.41-3.18,10.87-8.1,3.75-5.35,4.35-13,2.72-14.71A2.38,2.38,0,0,0,27.19,3Z" transform="translate(-1.26 -3)" style="fill:#fff"/><path d="M58.6,7.13,51.33,23.71H49L41.69,7.13h2.55l6,13.62,6-13.62Z" transform="translate(-1.26 -3)" style="fill:#fff"/><path d="M69.39,16.13v7.58H67.23V22.05a4.65,4.65,0,0,1-4.12,1.8c-2.84,0-4.64-1.52-4.64-3.69s1.3-3.68,5-3.68h3.6V16c0-1.92-1.11-3-3.36-3a6.35,6.35,0,0,0-4,1.35l-1-1.71A8.38,8.38,0,0,1,64,11C67.44,11,69.39,12.69,69.39,16.13Zm-2.28,3.74V18.12h-3.5c-2.25,0-2.89.87-2.89,1.94,0,1.26,1,2,2.77,2A3.64,3.64,0,0,0,67.11,19.87Z" transform="translate(-1.26 -3)" style="fill:#fff"/><path d="M85.69,11.15V22c0,4.43-2.25,6.45-6.51,6.45a9.28,9.28,0,0,1-6-1.88l1.09-1.75a7.67,7.67,0,0,0,4.84,1.64c3,0,4.31-1.38,4.31-4.22v-1a5.74,5.74,0,0,1-4.53,2,6,6,0,0,1-6.37-6.09c0-3.63,2.75-6.07,6.37-6.07a5.73,5.73,0,0,1,4.65,2.07V11.15Zm-2.22,6a4.33,4.33,0,1,0-4.32,4.1A4,4,0,0,0,83.47,17.1Z" transform="translate(-1.26 -3)" style="fill:#fff"/><path d="M100,16.13v7.58H97.83V22.05a4.66,4.66,0,0,1-4.12,1.8c-2.84,0-4.64-1.52-4.64-3.69s1.3-3.68,5-3.68h3.6V16c0-1.92-1.11-3-3.36-3a6.35,6.35,0,0,0-4,1.35l-1-1.71A8.38,8.38,0,0,1,94.61,11C98,11,100,12.69,100,16.13Zm-2.28,3.74V18.12h-3.5c-2.25,0-2.89.87-2.89,1.94,0,1.26,1,2,2.77,2A3.64,3.64,0,0,0,97.71,19.87Z" transform="translate(-1.26 -3)" style="fill:#fff"/><path d="M104.21,6.13h2.27V23.71h-2.27Z" transform="translate(-1.26 -3)" style="fill:#fff"/><path d="M122.53,11.15V23.71h-2.16v-1.9a5.09,5.09,0,0,1-4.26,2c-3.25,0-5.41-1.78-5.41-5.47V11.15H113v7c0,2.46,1.23,3.69,3.39,3.69,2.37,0,3.88-1.47,3.88-4.17V11.15Z" transform="translate(-1.26 -3)" style="fill:#fff"/><path d="M147.72,16.48v7.23h-2.28v-7c0-2.46-1.18-3.67-3.24-3.67-2.28,0-3.77,1.45-3.77,4.17v6.47h-2.27v-7c0-2.46-1.19-3.67-3.25-3.67-2.27,0-3.77,1.45-3.77,4.17v6.47h-2.27V11.15h2.18V13a5.08,5.08,0,0,1,4.33-2,4.64,4.64,0,0,1,4.36,2.33A5.65,5.65,0,0,1,142.58,11C145.63,11,147.72,12.79,147.72,16.48Z" transform="translate(-1.26 -3)" style="fill:#fff"/><path d="M163.29,18.19H153.11a4.25,4.25,0,0,0,4.55,3.67,4.67,4.67,0,0,0,3.62-1.52l1.26,1.47a6.3,6.3,0,0,1-4.95,2c-4.06,0-6.76-2.68-6.76-6.42a6.15,6.15,0,0,1,6.3-6.4c3.63,0,6.21,2.61,6.21,6.47A5.6,5.6,0,0,1,163.29,18.19Zm-10.18-1.64h8a4.05,4.05,0,0,0-8,0Z" transform="translate(-1.26 -3)" style="fill:#fff"/><path d="M173.25,11v2.21a3.14,3.14,0,0,0-.52,0c-2.44,0-3.95,1.5-3.95,4.24v6.26H166.5V11.15h2.18v2.11C169.49,11.79,171.05,11,173.25,11Z" transform="translate(-1.26 -3)" style="fill:#fff"/><path d="M175.65,7.27a1.49,1.49,0,0,1,1.54-1.49,1.47,1.47,0,0,1,1.54,1.44,1.49,1.49,0,0,1-1.54,1.52A1.48,1.48,0,0,1,175.65,7.27Zm.4,3.88h2.28V23.71h-2.28Z" transform="translate(-1.26 -3)" style="fill:#fff"/><path d="M192.61,16.13v7.58h-2.15V22.05a4.66,4.66,0,0,1-4.12,1.8c-2.85,0-4.65-1.52-4.65-3.69s1.31-3.68,5.05-3.68h3.6V16c0-1.92-1.11-3-3.36-3a6.33,6.33,0,0,0-4,1.35l-.95-1.71A8.36,8.36,0,0,1,187.24,11C190.67,11,192.61,12.69,192.61,16.13Zm-2.27,3.74V18.12h-3.51c-2.25,0-2.89.87-2.89,1.94,0,1.26,1.05,2,2.78,2A3.64,3.64,0,0,0,190.34,19.87Z" transform="translate(-1.26 -3)" style="fill:#fff"/></svg>