<?xml version="1.0" standalone="no"?>
<!DOCTYPE svg PUBLIC "-//W3C//DTD SVG 20010904//EN"
 "http://www.w3.org/TR/2001/REC-SVG-20010904/DTD/svg10.dtd">
<svg version="1.0" xmlns="http://www.w3.org/2000/svg"
 width="260.000000pt" height="260.000000pt" viewBox="0 0 260.000000 260.000000"
 preserveAspectRatio="xMidYMid meet">
<metadata>
Created by potrace 1.11, written by Peter Selinger 2001-2013
</metadata>
<g transform="translate(0.000000,260.000000) scale(0.100000,-0.100000)"
fill="#000000" stroke="none">
<path d="M293 2279 c-101 -18 -147 -69 -173 -194 -19 -90 -15 -263 9 -400 65
-378 219 -673 503 -971 279 -292 546 -431 750 -391 54 11 171 61 240 104 221
133 500 428 647 681 136 235 225 557 224 817 -1 227 -46 318 -170 350 -209 53
-699 -228 -958 -549 -33 -41 -62 -75 -65 -75 -3 0 -21 21 -40 46 -48 65 -202
221 -275 279 -242 193 -549 327 -692 303z m131 -180 c251 -77 545 -290 719
-522 l57 -76 -64 -120 c-134 -252 -203 -477 -201 -658 0 -35 -3 -63 -6 -63
-13 0 -229 218 -287 290 -239 298 -356 599 -367 945 -5 121 6 203 28 217 20
12 51 9 121 -13z m1873 13 c47 -30 37 -336 -17 -544 -63 -241 -177 -448 -375
-678 -70 -82 -212 -220 -233 -228 -4 -1 -7 28 -8 65 0 64 -5 107 -20 193 -8
44 -51 184 -71 230 -49 115 -102 223 -136 279 l-38 64 35 51 c104 155 289 323
487 440 82 49 246 121 290 128 51 7 74 7 86 0z m-955 -854 c77 -154 118 -266
142 -385 53 -259 -25 -406 -207 -388 -92 10 -138 47 -163 132 -42 143 6 360
137 628 23 47 45 85 48 85 4 0 23 -33 43 -72z"/>
</g>
</svg>
